<?xml version="1.0" encoding="UTF-8"?>
<svg width="46px" height="61px" viewBox="0 0 46 61" version="1.1" xmlns="http://www.w3.org/2000/svg" xmlns:xlink="http://www.w3.org/1999/xlink">
    <!-- Generator: Sketch 55.1 (78136) - https://sketchapp.com -->
    <title>form copy</title>
    <desc>Created with Sketch.</desc>
    <g id="Page-1" stroke="none" stroke-width="1" fill="none" fill-rule="evenodd">
        <g id="icons" transform="translate(-307.000000, -433.000000)">
            <g id="form-copy" transform="translate(307.000000, 433.000000)">
                <rect id="Rectangle-Copy-2" fill="#16A050" x="0" y="8.44615385" width="45.9846154" height="52.5538462" rx="5"></rect>
                <rect id="Rectangle" fill="#20BC62" x="0" y="3.75384615" width="45.9846154" height="52.5538462" rx="5"></rect>
                <g id="Group" transform="translate(4.692308, 15.015385)">
                    <circle id="Oval" fill="#16A050" cx="6.56923077" cy="6.56923077" r="6.56923077"></circle>
                    <polyline id="Path" stroke="#FFFFFF" stroke-width="1.65" stroke-linecap="round" stroke-linejoin="round" transform="translate(6.569231, 7.074556) rotate(3.000000) translate(-6.569231, -7.074556) " points="4.04260355 7.18978018 6.20797934 9.09585799 9.09585799 5.05325444"></polyline>
                </g>
                <g id="Group-Copy" transform="translate(4.692308, 34.723077)">
                    <circle id="Oval" fill="#16A050" cx="6.56923077" cy="6.56923077" r="6.56923077"></circle>
                    <polyline id="Path" stroke="#FFFFFF" stroke-width="1.65" stroke-linecap="round" stroke-linejoin="round" transform="translate(6.569231, 7.074556) rotate(3.000000) translate(-6.569231, -7.074556) " points="4.04260355 7.18978018 6.20797934 9.09585799 9.09585799 5.05325444"></polyline>
                </g>
                <rect id="Rectangle" fill="#16A050" x="9.38461538" y="0" width="28.1538462" height="8.44615385" rx="4.22307692"></rect>
                <path d="M23.4615385,22.5230769 L38.4769231,22.5230769" id="Path-2" stroke="#FFFFFF" stroke-width="3" stroke-linecap="round" stroke-linejoin="round"></path>
                <path d="M23.4615385,41.7615385 L38.4769231,41.7615385" id="Path-2-Copy" stroke="#FFFFFF" stroke-width="3" stroke-linecap="round" stroke-linejoin="round"></path>
            </g>
        </g>
    </g>
</svg>